<svg xmlns="http://www.w3.org/2000/svg" version="1.1" xmlns:xlink="http://www.w3.org/1999/xlink" xmlns:svgjs="http://svgjs.dev/svgjs" width="1500" height="934" viewBox="0 0 1500 934"><g transform="matrix(1,0,0,1,0.1871223912221467,0)"><svg viewBox="0 0 321 200" data-background-color="#ffffff" preserveAspectRatio="xMidYMid meet" height="934" width="1500" xmlns="http://www.w3.org/2000/svg" xmlns:xlink="http://www.w3.org/1999/xlink"><g id="tight-bounds" transform="matrix(1,0,0,1,-0.04004419172153462,0)"><svg viewBox="0 0 321.08008838344307 200" height="200" width="321.08008838344307"><g><svg viewBox="0 0 322.68548882536027 200.99999999999997" height="200" width="321.08008838344307"><g><rect width="5.596248479538906" height="200.99999999999997" x="124.5719400576369" y="0" fill="#398378" opacity="1" stroke-width="0" stroke="transparent" fill-opacity="1" class="rect-qz-0" data-fill-palette-color="primary" rx="1%" id="qz-0" data-palette-color="#398378"></rect></g><g transform="matrix(1,0,0,1,144.81805366685882,0.4999999999999858)"><svg viewBox="0 0 177.86743515850145 200" height="200" width="177.86743515850145"><g id="textblocktransform"><svg viewBox="0 0 177.86743515850145 200" height="200" width="177.86743515850145" id="textblock"><g><svg viewBox="0 0 177.86743515850145 200" height="200" width="177.86743515850145"><g transform="matrix(1,0,0,1,0,0)"><svg width="177.86743515850145" viewBox="1.75 -40 116.99999999999999 127.13" height="200" data-palette-color="#398378"><svg></svg><svg></svg><svg></svg><g class="wordmark-text-0" data-fill-palette-color="primary" id="text-0"><path d="M27.93 0h-8.15l-1.13-13.13-1.5-23.14h-1.92l-1.33 23.14-0.7 7.65h-3.5l1.15-19.47 1.3-14.8h8l1.38 14.8 1.42 21.35h5.23zM12.63 0h-8.21l-2.67-40h3.95l0.9 15.05 1.05 21.35h5.38zM28.33-5.48h-3.48l1-19.47 0.88-15.05h4zM39.88-36h-5.25v-4h5.25zM39.25 0h-3.98v-30h3.98zM48.8 0h-3.97v-40h3.97zM53.93-5.95v0c-0.053-1.367-0.087-2.837-0.1-4.41-0.02-1.58-0.027-3.173-0.02-4.78 0.013-1.607 0.027-3.177 0.04-4.71 0.02-1.533 0.047-2.933 0.08-4.2v0c0.067-2.3 0.577-3.93 1.53-4.89 0.96-0.96 2.317-1.44 4.07-1.44v0c0.667 0 1.25 0.067 1.75 0.2 0.5 0.133 0.95 0.343 1.35 0.63v0 2.55c-0.52-0.233-1.113-0.35-1.78-0.35v0c-1.013 0-1.737 0.23-2.17 0.69-0.433 0.453-0.667 1.197-0.7 2.23v0c-0.087 2.067-0.143 4.217-0.17 6.45-0.02 2.233-0.02 4.4 0 6.5 0.027 2.1 0.067 3.993 0.12 5.68v0c0.033 1.167 0.283 1.98 0.75 2.44 0.467 0.453 1.183 0.68 2.15 0.68v0c0.7 0 1.3-0.107 1.8-0.32v0 2.5c-0.42 0.28-0.887 0.497-1.4 0.65-0.52 0.153-1.12 0.23-1.8 0.23v0c-1.833 0-3.19-0.497-4.07-1.49-0.873-0.993-1.35-2.607-1.43-4.84zM69.28 0h-4.05v-40h4.05z" fill="#398378" fill-rule="nonzero" stroke="none" stroke-width="1" stroke-linecap="butt" stroke-linejoin="miter" stroke-miterlimit="10" stroke-dasharray="" stroke-dashoffset="0" font-family="none" font-weight="none" font-size="none" text-anchor="none" style="mix-blend-mode: normal" data-fill-palette-color="primary" opacity="1"></path><path transform="translate(0,43.38)" d="M7 0h-3.97v-40h3.97zM11.7-18.32h-6.4v-3.58h7.35zM18.35 0h-3.97v-40h3.97zM23.23-5.58v0c-0.02-0.413-0.033-0.823-0.04-1.23-0.007-0.413-0.003-0.837 0.01-1.27v0c0.067-1.2 0.287-2.27 0.66-3.21 0.38-0.94 0.987-1.803 1.82-2.59 0.833-0.78 1.973-1.51 3.42-2.19v0c0.4-0.207 0.813-0.41 1.24-0.61 0.427-0.2 0.863-0.4 1.31-0.6v0 2.83c-0.267 0.133-0.547 0.287-0.84 0.46-0.287 0.173-0.59 0.37-0.91 0.59v0c-1.087 0.633-1.807 1.423-2.16 2.37-0.36 0.953-0.547 1.953-0.56 3v0c0 0.453 0 0.85 0 1.19 0 0.34 0.007 0.677 0.02 1.01v0c0.08 0.987 0.39 1.76 0.93 2.32 0.533 0.553 1.267 0.83 2.2 0.83v0c0.5 0 0.94-0.073 1.32-0.22v0 2.6c-0.68 0.42-1.547 0.63-2.6 0.63v0c-1.853 0-3.25-0.487-4.19-1.46-0.94-0.967-1.483-2.45-1.63-4.45zM27.7-19.58h-3.82c-0.053-0.713-0.08-1.447-0.08-2.2 0-0.747 0.007-1.463 0.02-2.15v0c0.087-2.033 0.577-3.567 1.47-4.6 0.893-1.033 2.43-1.633 4.61-1.8v0 3.15c-0.667 0.133-1.193 0.413-1.58 0.84-0.38 0.427-0.587 1.057-0.62 1.89v0c-0.033 0.48-0.053 1.043-0.06 1.69-0.007 0.64-0.003 1.25 0.01 1.83 0.02 0.587 0.037 1.037 0.05 1.35zM38.17 0h-3.87v-24.18c0-0.833-0.133-1.483-0.4-1.95-0.267-0.467-0.717-0.783-1.35-0.95v0-3.25c2.147 0.167 3.63 0.807 4.45 1.92 0.82 1.107 1.23 2.777 1.23 5.01v0zM45.48-5.25l-3.73-24.75h4.15l2 15.12 0.93 9.63zM46.28 0l-0.48-3.05h4.43l1.22-11.83 2.03-15.12h4.15l-4.53 30zM60.52-6.15v0c-0.033-1.2-0.06-2.547-0.08-4.04-0.027-1.493-0.04-3.04-0.04-4.64 0-1.6 0.007-3.17 0.02-4.71 0.02-1.54 0.053-2.96 0.1-4.26v0c0.1-2.133 0.637-3.713 1.61-4.74 0.96-1.027 2.483-1.623 4.57-1.79v0 3.18c-0.767 0.147-1.313 0.46-1.64 0.94-0.32 0.473-0.49 1.11-0.51 1.91v0c-0.053 1.533-0.087 3.063-0.1 4.59-0.02 1.52-0.03 3.043-0.03 4.57 0 1.527 0.01 3.07 0.03 4.63 0.013 1.553 0.047 3.14 0.1 4.76v0c0.02 0.9 0.203 1.573 0.55 2.02 0.353 0.453 0.887 0.747 1.6 0.88v0 3.18c-2.133-0.167-3.67-0.763-4.61-1.79-0.947-1.027-1.47-2.59-1.57-4.69zM69.38 0.33v0-3.18c0.68-0.153 1.173-0.457 1.48-0.91 0.313-0.46 0.487-1.133 0.52-2.02v0c0.027-0.5 0.04-1.173 0.04-2.02 0-0.853-0.023-1.753-0.07-2.7v0h3.93c0.047 0.567 0.073 1.3 0.08 2.2 0.013 0.9 0.003 1.617-0.03 2.15v0c-0.107 2.1-0.607 3.667-1.5 4.7-0.907 1.033-2.39 1.627-4.45 1.78zM75.28-14.2h-8.51v-2.9h4.63c0.033-0.967 0.05-1.947 0.05-2.94 0-0.993-0.003-1.873-0.01-2.64-0.013-0.767-0.033-1.307-0.06-1.62v0c-0.033-0.867-0.217-1.52-0.55-1.96-0.333-0.447-0.817-0.743-1.45-0.89v0-3.18c2.047 0.167 3.53 0.767 4.45 1.8 0.913 1.033 1.413 2.567 1.5 4.6v0c0.013 0.367 0.03 1.093 0.05 2.18 0.013 1.08 0.017 2.3 0.01 3.66-0.007 1.36-0.043 2.657-0.11 3.89zM84.15 0h-4v-30h4zM95.55 0h-3.97v-24.35c-0.02-1.067-0.263-1.833-0.73-2.3-0.467-0.467-1.207-0.7-2.22-0.7v0c-0.333 0-0.653 0.033-0.96 0.1-0.3 0.067-0.58 0.157-0.84 0.27v0-2.42c0.413-0.32 0.887-0.563 1.42-0.73 0.533-0.167 1.143-0.25 1.83-0.25v0c1.847 0 3.217 0.5 4.11 1.5 0.893 1 1.347 2.61 1.36 4.83v0z" fill="#398378" fill-rule="nonzero" stroke="none" stroke-width="1" stroke-linecap="butt" stroke-linejoin="miter" stroke-miterlimit="10" stroke-dasharray="" stroke-dashoffset="0" font-family="none" font-weight="none" font-size="none" text-anchor="none" style="mix-blend-mode: normal" data-fill-palette-color="primary" opacity="1"></path><path transform="translate(0,86.75)" d="M18.88 0h-4.13l-3.67-15.3h-1.3v-3.58h0.97c1.2 0 2.047-0.203 2.54-0.61 0.493-0.407 0.747-1.11 0.76-2.11v0c0.053-1.52 0.09-2.907 0.11-4.16 0.027-1.26 0.037-2.52 0.03-3.78-0.007-1.26-0.053-2.64-0.14-4.14v0c-0.047-1.013-0.31-1.723-0.79-2.13-0.473-0.413-1.293-0.62-2.46-0.62v0h-1.15v-3.57h1.15c2.5 0 4.31 0.5 5.43 1.5 1.113 1 1.713 2.66 1.8 4.98v0c0.067 1.56 0.103 2.99 0.11 4.29 0.007 1.3 0.007 2.547 0 3.74-0.007 1.193-0.043 2.44-0.11 3.74v0c-0.12 3-1.187 4.917-3.2 5.75v0zM7 0h-3.97v-40h3.97zM22.63-6.15v0c-0.033-1.2-0.063-2.547-0.09-4.04-0.027-1.493-0.04-3.04-0.04-4.64 0-1.6 0.01-3.17 0.03-4.71 0.013-1.54 0.047-2.96 0.1-4.26v0c0.1-2.133 0.633-3.713 1.6-4.74 0.967-1.027 2.49-1.623 4.57-1.79v0 3.18c-0.767 0.147-1.313 0.46-1.64 0.94-0.32 0.473-0.49 1.11-0.51 1.91v0c-0.047 1.533-0.08 3.063-0.1 4.59-0.013 1.52-0.02 3.043-0.02 4.57 0 1.527 0.007 3.07 0.02 4.63 0.02 1.553 0.053 3.14 0.1 4.76v0c0.02 0.9 0.203 1.573 0.55 2.02 0.353 0.453 0.887 0.747 1.6 0.88v0 3.18c-2.133-0.167-3.67-0.763-4.61-1.79-0.94-1.027-1.46-2.59-1.56-4.69zM31.48 0.33v0-3.18c0.68-0.153 1.173-0.457 1.48-0.91 0.313-0.46 0.487-1.133 0.52-2.02v0c0.033-0.5 0.05-1.173 0.05-2.02 0-0.853-0.027-1.753-0.08-2.7v0h3.93c0.047 0.567 0.073 1.3 0.08 2.2 0.013 0.9 0.003 1.617-0.03 2.15v0c-0.1 2.1-0.6 3.667-1.5 4.7-0.9 1.033-2.383 1.627-4.45 1.78zM37.38-14.2h-8.5v-2.9h4.62c0.033-0.967 0.05-1.947 0.05-2.94 0-0.993-0.003-1.873-0.01-2.64-0.007-0.767-0.027-1.307-0.06-1.62v0c-0.033-0.867-0.217-1.52-0.55-1.96-0.333-0.447-0.817-0.743-1.45-0.89v0-3.18c2.047 0.167 3.53 0.767 4.45 1.8 0.913 1.033 1.413 2.567 1.5 4.6v0c0.013 0.367 0.03 1.093 0.05 2.18 0.013 1.08 0.017 2.3 0.01 3.66-0.007 1.36-0.043 2.657-0.11 3.89zM42.6-26.9h-2.4v-3.1h2.4v-8.5h4v32.72c0 1.2 0.22 2.013 0.66 2.44 0.447 0.427 1.337 0.64 2.67 0.64v0c0.513 0 0.95-0.013 1.31-0.04 0.36-0.027 0.773-0.063 1.24-0.11v0 2.98c-0.4 0.08-0.813 0.14-1.24 0.18-0.427 0.047-0.88 0.07-1.36 0.07v0c-2.687 0-4.57-0.503-5.65-1.51-1.087-1-1.63-2.7-1.63-5.1v0zM51.9-26.9h-3.4v-3.1h3.4zM60.13 0h-4.08v-30h4.08zM62.78-26.53v0-3.05c0.7-0.367 1.583-0.55 2.65-0.55v0c0.313 0 0.623 0.013 0.93 0.04 0.313 0.027 0.627 0.063 0.94 0.11v0 3.08h-1.82c-1.087 0-1.987 0.123-2.7 0.37zM69.7-6.15v0c-0.033-1.2-0.063-2.547-0.09-4.04-0.02-1.493-0.03-3.04-0.03-4.64 0-1.6 0.007-3.17 0.02-4.71 0.02-1.54 0.053-2.96 0.1-4.26v0c0.1-2.133 0.633-3.713 1.6-4.74 0.967-1.027 2.493-1.623 4.58-1.79v0 3.18c-0.767 0.147-1.313 0.46-1.64 0.94-0.327 0.473-0.497 1.11-0.51 1.91v0c-0.053 1.533-0.087 3.063-0.1 4.59-0.02 1.52-0.03 3.043-0.03 4.57 0 1.527 0.01 3.07 0.03 4.63 0.013 1.553 0.047 3.14 0.1 4.76v0c0.013 0.9 0.197 1.573 0.55 2.02 0.347 0.453 0.88 0.747 1.6 0.88v0 3.18c-2.133-0.167-3.673-0.763-4.62-1.79-0.94-1.027-1.46-2.59-1.56-4.69zM78.55 0.33v0-3.18c0.687-0.153 1.183-0.457 1.49-0.91 0.307-0.46 0.477-1.133 0.51-2.02v0c0.033-0.5 0.05-1.173 0.05-2.02 0-0.853-0.023-1.753-0.07-2.7v0h3.92c0.053 0.567 0.083 1.3 0.09 2.2 0.007 0.9-0.007 1.617-0.04 2.15v0c-0.1 2.1-0.6 3.667-1.5 4.7-0.9 1.033-2.383 1.627-4.45 1.78zM84.45-14.2h-8.5v-2.9h4.63c0.033-0.967 0.05-1.947 0.05-2.94 0-0.993-0.007-1.873-0.02-2.64-0.007-0.767-0.027-1.307-0.06-1.62v0c-0.033-0.867-0.217-1.52-0.55-1.96-0.333-0.447-0.817-0.743-1.45-0.89v0-3.18c2.053 0.167 3.537 0.767 4.45 1.8 0.92 1.033 1.42 2.567 1.5 4.6v0c0.02 0.367 0.037 1.093 0.05 2.18 0.02 1.08 0.023 2.3 0.01 3.66-0.007 1.36-0.043 2.657-0.11 3.89zM88.13-5.58v0c-0.02-0.413-0.033-0.823-0.04-1.23-0.007-0.413-0.003-0.837 0.01-1.27v0c0.067-1.2 0.287-2.27 0.66-3.21 0.38-0.94 0.987-1.803 1.82-2.59 0.833-0.78 1.973-1.51 3.42-2.19v0c0.4-0.207 0.813-0.41 1.24-0.61 0.427-0.2 0.863-0.4 1.31-0.6v0 2.83c-0.267 0.133-0.547 0.287-0.84 0.46-0.287 0.173-0.59 0.37-0.91 0.59v0c-1.08 0.633-1.8 1.423-2.16 2.37-0.36 0.953-0.547 1.953-0.56 3v0c0 0.453 0 0.85 0 1.19 0 0.34 0.007 0.677 0.02 1.01v0c0.087 0.987 0.397 1.76 0.93 2.32 0.533 0.553 1.267 0.83 2.2 0.83v0c0.5 0 0.94-0.073 1.32-0.22v0 2.6c-0.68 0.42-1.547 0.63-2.6 0.63v0c-1.847 0-3.243-0.487-4.19-1.46-0.94-0.967-1.483-2.45-1.63-4.45zM92.6-19.58h-3.82c-0.053-0.713-0.08-1.447-0.08-2.2 0-0.747 0.01-1.463 0.03-2.15v0c0.08-2.033 0.567-3.567 1.46-4.6 0.893-1.033 2.43-1.633 4.61-1.8v0 3.15c-0.667 0.133-1.19 0.413-1.57 0.84-0.387 0.427-0.597 1.057-0.63 1.89v0c-0.033 0.48-0.053 1.043-0.06 1.69-0.007 0.64-0.003 1.25 0.01 1.83 0.02 0.587 0.037 1.037 0.05 1.35zM103.08 0h-3.88v-24.18c0-0.833-0.133-1.483-0.4-1.95-0.267-0.467-0.717-0.783-1.35-0.95v0-3.25c2.153 0.167 3.637 0.807 4.45 1.92 0.82 1.107 1.23 2.777 1.23 5.01v0zM108.88-26.9h-2.41v-3.1h2.41v-8.5h4v32.72c0 1.2 0.22 2.013 0.66 2.44 0.44 0.427 1.327 0.64 2.66 0.64v0c0.513 0 0.95-0.013 1.31-0.04 0.36-0.027 0.773-0.063 1.24-0.11v0 2.98c-0.4 0.08-0.813 0.14-1.24 0.18-0.42 0.047-0.873 0.07-1.36 0.07v0c-2.68 0-4.563-0.503-5.65-1.51-1.08-1-1.62-2.7-1.62-5.1v0zM118.17-26.9h-3.39v-3.1h3.39z" fill="#398378" fill-rule="nonzero" stroke="none" stroke-width="1" stroke-linecap="butt" stroke-linejoin="miter" stroke-miterlimit="10" stroke-dasharray="" stroke-dashoffset="0" font-family="none" font-weight="none" font-size="none" text-anchor="none" style="mix-blend-mode: normal" data-fill-palette-color="primary" opacity="1"></path></g></svg></g></svg></g></svg></g></svg></g><g transform="matrix(1,0,0,1,0,20.10922878403369)"><svg viewBox="0 0 109.9220749279539 160.7815424319326" height="160.7815424319326" width="109.9220749279539"><g><svg xmlns="http://www.w3.org/2000/svg" xmlns:xlink="http://www.w3.org/1999/xlink" version="1.1" x="0" y="0" viewBox="16 1 67 98.00000000000001" enable-background="new 0 0 100 100" xml:space="preserve" height="160.7815424319326" width="109.9220749279539" class="icon-icon-0" data-fill-palette-color="accent" id="icon-0"><path d="M34.032 26.214c0 1.833 1.491 3.324 3.324 3.324 1.833 0 3.324-1.491 3.324-3.324 0-1.833-1.491-3.324-3.324-3.324C35.523 22.889 34.032 24.381 34.032 26.214z" fill="#31c48d" data-fill-palette-color="accent"></path><path d="M66.375 26.214c0-1.833-1.491-3.324-3.324-3.324-1.833 0-3.324 1.491-3.324 3.324 0 1.833 1.491 3.324 3.324 3.324C64.884 29.538 66.375 28.047 66.375 26.214z" fill="#31c48d" data-fill-palette-color="accent"></path><path d="M50.213 1h-0.01C31.336 1 16 15.257 16 34.124V97h0.051C34.095 97 48 74.728 48 48.968V49h3v-0.032c0 6.643-0.614 13.087-2.432 19.155-1.763 5.882-4.137 11.169-7.362 15.714-3.25 4.582-6.969 8.637-11.207 11.162-2.972 1.771-5.995 3.021-9.184 4.001 9.446 0 29.396 0 29.388 0h0.01C69.079 99 83 82.666 83 63.8V34.124C83 15.257 69.079 1 50.213 1zM52.618 29c1.468 0 2.069 0.762 1.335 2.033l-2.417 4.047c-0.734 1.272-1.935 1.202-2.67-0.07l-2.417-3.943C45.715 29.797 46.316 29 47.784 29H52.618zM67.28 37.333c-4.582 2.658-10.644 4.121-17.069 4.121s-12.487-1.464-17.069-4.122c-4.82-2.796-7.477-6.597-7.483-10.703l-0.008-0.415c0-6.454 5.251-11.311 11.704-11.311C43.81 14.902 49.061 21 49.061 27h-2.842c0-4-3.976-9.256-8.863-9.256-4.882 0-8.855 3.772-8.863 8.652l0.008 0.315c0 3.057 2.155 5.941 6.067 8.211 4.156 2.411 9.711 3.714 15.643 3.714s11.487-1.34 15.643-3.751c3.907-2.266 6.061-5.201 6.067-8.253l-0.008-0.417c0-4.887-3.976-8.471-8.863-8.471-4.887 0-8.863 5.254-8.863 9.254h-2.842c0-6 5.251-12.098 11.704-12.098 6.449 0 11.697 5.046 11.704 11.493l0.008 0.316C74.763 30.824 72.106 34.534 67.28 37.333zM43.522 26.214c0 3.4-2.766 6.166-6.166 6.166-3.4 0-6.166-2.766-6.166-6.166 0-3.4 2.766-6.166 6.166-6.166C40.756 20.047 43.522 22.814 43.522 26.214zM56.885 26.214c0-3.4 2.766-6.166 6.166-6.166 3.4 0 6.166 2.766 6.166 6.166 0 3.4-2.766 6.166-6.166 6.166C59.651 32.38 56.885 29.614 56.885 26.214z" fill="#31c48d" data-fill-palette-color="accent"></path></svg></g></svg></g></svg></g><defs></defs></svg><rect width="321.08008838344307" height="200" fill="none" stroke="none" visibility="hidden"></rect></g></svg></g></svg>